<svg width="128" height="128" viewBox="0 0 128 128" xmlns="http://www.w3.org/2000/svg" role="img" aria-labelledby="title">
  <title id="title">Blazn flame</title>
  <rect x="4" y="4" width="120" height="120" rx="30" fill="#18181b"/>
  <rect x="4" y="4" width="120" height="120" rx="30" fill="none" stroke="#f97316" stroke-opacity=".28" stroke-width="2"/>
  <g transform="translate(-33 124) scale(.04 -.04)" fill="#f97316">
    <path d="M1892 3003c-23-20-529-827-572-913-168-334-58-750 255-963 408-278 983-83 1140 386 70 212 46 440-67 632-52 87-173 208-258 257-98 57-106 52-234-156-112-181-112-200-2-297 139-122 123-328-31-412-175-94-373 22-373 218 0 37 8 75 19 100 10 22 107 182 216 355 229 366 228 364 219 393-14 46-198 383-218 399-27 23-68 23-94 1z"/>
  </g>
</svg>
